Patient4_TMGait_0pt8_01_right_02_EMG.mot
version=1
nRows=37
nColumns=33
inDegrees=no
endheader
time	1LAddLong	2LGlutMax	3LGlutMed	4LIliopsoas	5LSemiMemb	6LBicFemLong	7LRecFem	8LVastMed	9LVastLat	10LGasMed	11LTibAnt	12lTibPost	13LPeroneusLong	14LSol	15LExtDigLong	16LFlexDigLong	17RAddLong	18RGlutMax	19RGlutMed	20RIliopsoas	21RSemiMemb	22RBicFemLong	23RRecFem	24RVastMed	25RVastLat	26RGasMed	27RTibAnt	28RTibPost	29RPeroneusLong	30RSol	31RExtDigLong	32RFlexDigLong
3.098	0.010681	0.052795	-0.084534	0	0.081329	-0.4953	0.089111	-0.005188	0.010986	-0.054626	0.006104	-0.001678	0.30167	0.15472	0.021057	-0.000916	-0.01236	-0.080414	0.36179	-0.003357	0.001373	0.046387	0.015106	-0.048218	0.072784	0.004272	-0.016022	-0.010834	0.2623	-0.004272	0.002747	-0.003662
3.099	0.020294	0.1033	-0.084534	0.005951	0.044403	-0.1712	0.077515	0	0.032501	0.21759	-0.000305	0.010834	0.2655	0.15564	0.032349	-0.001526	-0.026398	-0.037384	0.31006	-0.067596	-0.043335	0.063934	-0.016022	0.04776	0.096283	-0.007477	-0.089417	-0.003204	0.47638	-0.021973	0.002441	-0.00061
3.1	0.011597	0.11612	-0.019531	0.007019	0.033722	0.12131	0.094147	-0.002441	0.014038	0.49347	0.001373	0.016937	0.03479	0.14771	0.035858	-0.005493	-0.014343	-0.061798	0.3125	-0.16235	-0.088348	0.039368	-0.063629	0.11124	0.083008	-0.00824	-0.02243	-0.002747	0.066833	-0.040741	0.000153	-0.000763
3.101	0.001526	0.09964	-0.001984	0.001373	0.052643	0.26321	0.12375	0.006256	-0.003815	0.45212	0.010071	0.12161	-0.046082	0.097809	-0.023804	-0.014343	0.005646	-0.048523	0.25955	-0.14725	-0.12024	0.055237	-0.15884	0.028381	0.046082	-0.009308	0.035095	-0.002899	-0.052795	-0.035553	0.003662	-0.001984
3.102	-0.001678	0.11704	0.007324	0.009308	0.11673	0.26184	0.11734	0.005646	0.006104	0.048218	0.000916	-0.06134	-0.093689	0.15839	0.003967	-1.6779	-0.005951	-0.061035	0.26001	-0.048676	-0.15671	0.063171	-0.14664	0.006256	0.059052	-0.024414	0.030975	-0.00061	0.070496	-0.018616	0.00061	-0.007935
3.103	-0.002289	0.13168	-0.033417	-0.011292	0.051575	0.14923	0.11246	0.003967	-0.002747	-0.058289	0.004883	-0.073395	-0.30945	0.098724	-0.00412	0.53116	-0.00061	-0.03479	0.25192	0.088348	-0.011292	0.080414	-0.058136	-0.0354	0.051422	-0.033569	0.032043	-0.003357	0.042114	0.023346	0.001831	-0.008698
3.104	0.01236	0.15549	0.00885	0.000305	-0.011597	0.06958	0.094604	-0.006409	0.009613	-0.76752	0.003815	0.002136	-0.16632	-0.05722	0.002747	1.1162	-0.001068	-0.055847	0.38055	0.24719	0.084229	0.031738	-0.014343	-0.008087	0.049286	-0.035553	0.062561	-0.003815	-0.094299	0.002899	0.001831	-0.000305
3.105	0.010223	0.14603	0.026703	-0.007477	-0.009308	-0.041809	0.085449	-0.002289	0.021515	-0.98816	-0.005951	-0.016022	-0.031586	-0.050964	0.001221	-1.0051	-0.005646	-0.031281	0.29617	0.27329	0.015869	0.079803	0.012817	-0.03479	0.047302	-0.036926	0.071564	-0.003815	-0.024872	-0.033112	-0.001373	0.003662
3.106	0.017242	0.17044	-0.037994	-0.004272	0.028992	-0.20432	0.0914	-0.005493	0.006256	-0.42435	-0.005798	-0.22247	0.097961	-0.008698	0.002899	0.18478	-0.0177	-0.078888	0.31052	0.16495	-0.078583	0.10544	0.016479	-0.017395	0.058441	0	0.045166	-0.010223	0.40268	-0.10757	0.001678	0.006866
3.107	0.022888	0.21805	-0.13534	0.008698	0.067596	-0.075989	0.10162	-0.013275	-0.006409	0.07019	-0.019379	0.15518	0.062561	-0.083618	0.007935	0.68878	-0.004272	-0.029755	0.16846	0.009766	-0.056915	0.13016	0.021362	-0.024109	0.056915	0.012207	0.009918	-0.010071	0.71487	-0.15991	-0.001831	0.004425
3.108	-0.003815	0.24155	-0.12741	-0.009613	0.023804	-0.06485	0.10895	-0.003662	-0.012665	0.27222	-0.014496	0.098419	0.1239	-0.43427	-0.029907	0.1886	-0.024109	-0.015564	0.23636	-0.046539	-0.02121	0.10254	0.029449	-0.040741	0.055542	-0.015717	0.011902	-0.002899	0.13626	-0.068817	0.000305	0.021973
3.109	-0.025482	0.20874	0.03067	0.001068	0.023804	-0.22079	0.17395	-0.005646	-0.02594	0.68878	-0.006256	-0.051422	0.12528	-0.52917	-0.055542	0.002594	-0.013428	0.047607	0.44037	-0.026855	-0.065765	0.098724	0.032654	-0.040588	0.042114	-0.013885	0.034332	0.00412	-0.53055	0.078888	-0.002441	0.006409
3.11	-0.011292	0.23789	0.11078	-0.014496	0.037994	-0.20477	0.19806	-0.001678	-0.014191	0.63553	0.009918	0.031433	0.048981	-0.57495	-0.050659	0.004883	-0.000763	0.063171	0.51666	-0.032959	-0.081329	0.071411	0.029144	-0.089874	0.05249	-0.019379	0.041199	-0.001373	-0.67886	0.13016	-0.000458	-0.008087
3.111	0.019226	0.22873	0.14893	-0.015869	0.032654	-0.063324	0.20401	0.003357	-0.026398	0.16068	0.005188	-0.031433	-0.088043	-0.48187	-0.031281	0.059357	0.00351	0.071411	0.36758	-0.015259	-0.13504	0.090027	0.027313	-0.061188	0.055847	-0.022736	0.026398	-0.005341	-0.28442	0.023804	-0.000916	-0.001068
3.112	0.006409	0.24323	0.088959	-0.001221	0.031281	-0.016785	0.18921	0.011597	-0.015259	-0.18051	0.018005	0.023346	-0.024567	-0.25543	-0.022736	0.012817	-0.002747	0.088959	0.26718	-0.037079	0.007629	0.085297	0.013123	-0.07309	0.058746	-0.011749	0.00351	-0.003204	0.39673	-0.17502	0.001984	0.003052
3.113	0.009155	0.21255	-0.002289	0.002747	0.036621	0.1445	0.22278	0.009918	-0.020905	-0.24353	0.006561	-0.02594	0.058289	-0.00473	-0.014343	-0.014038	-0.001373	0.075684	0.11444	-0.039673	0.13245	0.066528	0.028687	-0.026703	0.072174	-0.016327	0.013733	-0.002899	0.10742	-0.15762	-0.001221	0.002899
3.114	-0.003967	0.21622	-0.00412	-0.009613	0.032349	0.058441	0.20096	0.011444	-0.011292	-0.24719	0.01236	-0.000305	-0.19165	0.20432	-0.016785	-0.035248	-0.008545	0.112	0.067596	-0.023499	0.019073	0.033569	-0.009613	-0.084076	0.070496	-0.021973	0.080261	-0.013123	-0.3215	-0.075531	0.000763	-0.009766
3.115	-0.004425	0.15778	0.025482	0.00351	-0.001221	0.072632	0.13458	-0.001068	0.020294	-0.082092	0.023956	-0.030365	-0.29297	0.43304	0.00351	-0.063629	0.002136	0.13123	0.1503	-0.051727	-0.0177	0.037842	0.047302	-0.080872	0.074158	-0.041656	0.11856	-0.001068	-0.37491	-0.019989	-0.000153	0.001831
3.116	0.006714	0.14221	0.009918	0.002441	-0.027161	0.233	0.093994	-0.005035	0.032196	0.076294	0.011902	-0.047607	0.27756	0.45746	0.031281	-0.074921	0.018005	0.15869	0.093384	-0.1091	-0.006714	0.083618	0.07019	-0.050812	0.054321	-0.070953	0.027161	-0.009155	-0.42969	-0.02182	0.00061	0.002441
3.117	0.004578	0.1709	-0.023804	0.014496	-0.005188	0.23682	0.030823	-0.013428	0.022736	0.12116	0.001221	0.001831	0.168	0.34393	0.049744	-0.044098	0.026093	0.13855	0.049744	-0.14114	-0.003357	0.1059	0.029602	-0.094604	0.049133	-0.10162	-0.025024	-0.002594	0.1683	-0.032043	0.003662	-0.001831
3.118	0.010071	0.15976	0.000916	0.001526	0.034332	0.1358	0.027618	-0.009308	0.060577	0.087585	-0.025177	0.069122	0.019684	0.18814	0.05127	-0.017242	0.030365	0.10361	0.045319	-0.089722	-0.026855	0.093994	0.026245	-0.061798	0.044098	-0.11673	-0.040131	-0.005798	0.32089	-0.094147	0.003357	0.002747
3.119	0.018768	0.11231	-0.036316	0.001831	0.037994	-0.17166	0.091705	-0.009918	0.044403	0.074768	-0.016785	0.13596	0.061951	0.037079	0.006714	-0.015717	0.020599	0.14389	-0.061493	-0.002899	-0.05249	0.070953	0.021973	-0.087891	0.024719	-0.091553	-0.001068	-0.001984	0.04303	0.012054	-0.00351	0.006866
3.12	0.008392	0.15488	0.011749	0.023804	0.010529	-0.12665	0.097656	-0.007324	0.033722	0.030212	0.014038	0.058441	-0.31601	0.11856	0.018158	-0.031281	-0.004272	0.13245	0.045013	0.1535	-0.075073	0.082397	0.014343	-0.040131	0.019073	-0.027466	-0.012665	0.000153	0.049286	0.086975	0.001678	-0.032654
3.121	0.014191	0.11795	0.007477	0.014801	-0.00061	-0.21851	0.13931	-0.019226	0.084839	0.031891	0.022125	-0.054932	-0.47485	0.09613	-0.12497	-0.041809	-0.01358	0.15106	0.15488	0.19577	-0.044861	0.047302	-0.027618	-0.029449	0.038757	-0.042114	0.035858	-0.00351	-0.036163	0.056763	0.003204	-0.034637
3.122	0.005951	0.11383	0.026703	-0.011902	0.010071	-0.31799	0.23346	-0.011749	0.084534	0.030975	0.004883	-0.066071	-0.027313	0.089874	-0.13809	-0.019073	-0.035858	0.15182	0.11368	0.14725	0.061798	0.024414	-0.017548	-0.014496	0.037384	-0.074768	0.00351	-0.000763	-0.24689	-0.003662	-0.007629	-0.038757
3.123	0.011597	0.089722	0.021667	-0.015869	0.028076	-0.19424	0.21225	-0.006561	0.06897	0.015106	0.013275	-0.02121	-0.061493	0.25604	-0.032654	-0.015564	-0.036621	0.16876	0.051575	0.072632	0.045013	-0.040741	-0.027313	-0.01236	0.045013	-0.048065	-0.042114	-0.003204	-0.22446	0.007935	0.001068	-0.036774
3.124	0.00061	0.10193	-0.022125	-0.0177	0.033722	-0.054626	0.20721	-0.005798	0.05127	0.019226	-0.000763	-0.004272	-0.023346	0.19898	0.042267	-0.007935	-0.017548	0.16037	0.036163	0.013885	-0.063171	-0.10437	-0.029907	0.004578	0.024872	-0.005798	-0.029144	-0.00061	-0.075531	-0.04837	-0.001221	-0.034332
3.125	-0.002899	0.12207	-0.001068	0.024109	0.016785	0.08667	0.21835	0.00351	0.015411	0.02655	0.023499	0.005493	-0.12573	0.19134	0.076599	-0.005341	-0.018005	0.12405	0.054474	-0.014038	-0.05661	-0.064392	-0.028381	-0.003662	0.011292	0.054626	-0.072021	-0.017242	-0.21408	-0.040283	0.002289	-0.030975
3.126	0.002747	0.085449	-0.004883	0.025482	0.012512	0.03891	0.21011	-0.006409	0.014343	0.016479	0.015259	-0.016479	0.17975	0.19073	0.046387	-0.014191	0.001373	0.16815	0.13443	-0.043182	-0.080414	-0.031738	-0.039215	-0.028992	0.014496	0.11261	-0.060272	-0.005035	-0.24857	-0.028534	0.001221	-0.029907
3.127	0.000305	0.080109	-0.039368	0.00061	0.008087	-0.004425	0.20248	-0.00885	0.018005	-0.012817	-0.009613	0.012817	0.43167	0.13733	0.005646	0	0.015411	0.13016	0.21316	-0.021057	0.030823	0.013885	-0.023346	-0.039673	0.019836	0.18021	-0.076752	-0.010529	0.23697	-0.033722	-0.005341	-0.018311
3.128	0.001373	0.044556	-0.026245	-0.002899	-0.006409	-0.001068	0.19821	-0.008087	0.019226	0.015259	0.020447	0.016022	-0.034943	0.10925	0.00885	-0.002136	-0.001526	0.089417	0.21255	-0.023346	0.092316	0.027618	-0.048676	-0.066681	0.021667	0.2417	0.065613	-0.00946	0.28	-0.053558	-0.000763	-0.019073
3.129	0.016327	0.040588	-0.088806	-0.002441	0.015259	-0.063934	0.21286	-0.006104	0.028381	0.019379	0.013733	0.012817	0.1712	0.15579	-0.013428	-0.006866	-0.000153	0.092773	0.084229	-0.00824	0.00824	0.18356	-0.048065	-0.092621	0.047455	0.22675	0.47012	-0.008698	0.38711	-0.029449	0.001831	-0.010986
3.13	-0.000153	-0.00412	-0.1358	-0.007935	0.013733	-0.037079	0.21393	0.001526	0.033264	-0.017395	0.003204	0.013885	-0.052795	0.16678	-0.014801	-0.006256	0.00946	0.043945	0.056305	0.010071	-0.14801	0.2771	-0.054474	-0.10178	0.029755	0.12116	0.35782	-0.009308	0.19486	-0.024567	0.00061	-0.001678
3.131	-0.003815	-0.014496	-0.096893	0.006561	0.027008	-0.001526	0.23743	-0.001526	0.02655	0.013275	-0.007935	0.013885	-0.27786	0.19486	-0.02655	-0.034943	0.021057	0.083313	0.066071	0.002899	-0.18585	0.19333	-0.0354	-0.070038	0.028839	-0.00351	0.44418	-0.011444	0.30304	-0.003204	0.000153	0.002747
3.132	-0.007782	-0.037231	-0.083466	0.013733	0.005493	0.093384	0.23071	-0.001221	0.032043	0.079498	-0.023499	0.081329	0.15076	0.19531	0.015259	-0.069733	-0.00824	0.10193	0.054169	0.014954	-0.33066	0.20905	-0.067902	-0.043488	0.012665	-0.057068	0.457	-0.01358	0.19882	-0.032654	0.000153	-0.002899
3.133	-0.010223	-0.056152	-0.061493	0.012207	-0.028381	0.19684	0.22064	-0.005646	0.037079	0.094604	-0.005951	0.065613	0.17944	0.057068	0.020599	0.059204	-0.01358	0.097961	0.054169	-0.035706	-0.087738	0.23377	-0.083618	-0.042419	0.023499	-0.08194	0.27527	-0.010376	0.02121	-0.11169	-0.001526	0.000305
3.134	-0.001678	-0.034637	0.083466	-0.00412	-0.060883	0.14572	0.22171	-0.007172	0.039978	0.069885	0.002899	-0.20874	-0.033264	0.17014	0.014648	-0.1564	-0.062408	0.12177	0.086975	-0.073242	0.19272	0.2121	-0.10132	0.026398	0.0354	-0.093536	-0.080414	-0.011139	-0.29633	-0.10544	-0.00061	0.000916
